# Blender 4.4.1
# www.blender.org
mtllib Untitled.mtl
o Cylinder
v 0.000000 -8.362617 -1.000000
v 0.382683 -8.362617 -0.923880
v 0.707107 -8.362617 -0.707107
v 0.923880 -8.362617 -0.382683
v 1.000000 -8.362617 0.000000
v 0.923880 -8.362617 0.382683
v 0.707107 -8.362617 0.707107
v 0.382683 -8.362617 0.923880
v 0.000000 -8.362617 1.000000
v -0.382683 -8.362617 0.923880
v -0.707107 -8.362617 0.707107
v -0.923880 -8.362617 0.382683
v -1.000000 -8.362617 0.000000
v -0.923880 -8.362617 -0.382683
v -0.707107 -8.362617 -0.707107
v -0.382683 -8.362617 -0.923880
v -0.000000 1.548612 0.000000
v 0.000000 -0.686165 -1.000000
v 0.000000 1.439234 -0.415281
v 0.000000 1.121807 -0.651178
v 0.000000 0.627404 -0.838388
v 0.000000 0.004419 -0.958583
v 0.000000 1.548612 0.000000
v 0.382683 -0.686165 -0.923880
v 0.158921 1.439234 -0.383669
v 0.249195 1.121807 -0.601610
v 0.320837 0.627404 -0.774569
v 0.366834 0.004419 -0.885616
v 0.000000 1.548612 0.000000
v 0.707107 -0.686165 -0.707107
v 0.293648 1.439234 -0.293648
v 0.460453 1.121807 -0.460453
v 0.592830 0.627404 -0.592830
v 0.677821 0.004419 -0.677821
v 0.000000 1.548612 0.000000
v 0.923880 -0.686165 -0.382683
v 0.383669 1.439234 -0.158921
v 0.601610 1.121807 -0.249195
v 0.774569 0.627404 -0.320837
v 0.885616 0.004419 -0.366834
v 0.000000 1.548612 0.000000
v 1.000000 -0.686165 0.000000
v 0.415281 1.439234 0.000000
v 0.651178 1.121807 0.000000
v 0.838388 0.627404 0.000000
v 0.958583 0.004419 0.000000
v 0.000000 1.548612 0.000000
v 0.923880 -0.686165 0.382683
v 0.383669 1.439234 0.158921
v 0.601610 1.121807 0.249195
v 0.774569 0.627404 0.320837
v 0.885616 0.004419 0.366834
v 0.000000 1.548612 0.000000
v 0.707107 -0.686165 0.707107
v 0.293648 1.439234 0.293648
v 0.460453 1.121807 0.460453
v 0.592830 0.627404 0.592830
v 0.677821 0.004419 0.677821
v 0.000000 1.548612 0.000000
v 0.382683 -0.686165 0.923880
v 0.158921 1.439234 0.383669
v 0.249195 1.121807 0.601610
v 0.320837 0.627404 0.774569
v 0.366834 0.004419 0.885616
v -0.000000 1.548612 0.000000
v 0.000000 -0.686165 1.000000
v 0.000000 1.439234 0.415281
v 0.000000 1.121807 0.651178
v 0.000000 0.627404 0.838388
v 0.000000 0.004419 0.958583
v 0.000000 1.548612 0.000000
v -0.382683 -0.686165 0.923880
v -0.158921 1.439234 0.383669
v -0.249195 1.121807 0.601610
v -0.320837 0.627404 0.774569
v -0.366834 0.004419 0.885616
v 0.000000 1.548612 0.000000
v -0.707107 -0.686165 0.707107
v -0.293648 1.439234 0.293648
v -0.460453 1.121807 0.460453
v -0.592830 0.627404 0.592830
v -0.677821 0.004419 0.677821
v 0.000000 1.548612 0.000000
v -0.923880 -0.686165 0.382683
v -0.383669 1.439234 0.158921
v -0.601610 1.121807 0.249195
v -0.774569 0.627404 0.320837
v -0.885616 0.004419 0.366834
v 0.000000 1.548612 0.000000
v -1.000000 -0.686165 0.000000
v -0.415281 1.439234 0.000000
v -0.651178 1.121807 0.000000
v -0.838388 0.627404 0.000000
v -0.958583 0.004419 0.000000
v 0.000000 1.548612 0.000000
v -0.923880 -0.686165 -0.382683
v -0.383669 1.439234 -0.158921
v -0.601610 1.121807 -0.249195
v -0.774569 0.627404 -0.320837
v -0.885616 0.004419 -0.366834
v 0.000000 1.548612 0.000000
v -0.707107 -0.686165 -0.707107
v -0.293648 1.439234 -0.293648
v -0.460453 1.121807 -0.460453
v -0.592830 0.627404 -0.592830
v -0.677821 0.004419 -0.677821
v 0.000000 1.548612 0.000000
v -0.382683 -0.686165 -0.923880
v -0.158921 1.439234 -0.383669
v -0.249195 1.121807 -0.601610
v -0.320837 0.627404 -0.774569
v -0.366834 0.004419 -0.885616
v -0.000001 -10.203931 -1.350405
v 0.516777 -10.203931 -1.247611
v 0.954879 -10.203931 -0.954880
v 1.247610 -10.203931 -0.516777
v 1.350404 -10.203931 -0.000000
v 1.247610 -10.203931 0.516777
v 0.954879 -10.203931 0.954880
v 0.516777 -10.203931 1.247611
v -0.000001 -10.203931 1.350405
v -0.516778 -10.203931 1.247611
v -0.954881 -10.203931 0.954880
v -1.247612 -10.203931 0.516777
v -1.350405 -10.203931 -0.000000
v -1.247612 -10.203931 -0.516777
v -0.954881 -10.203931 -0.954880
v -0.516778 -10.203931 -1.247611
v -0.000001 -10.203931 -1.698333
v 0.649923 -10.203931 -1.569055
v 1.200902 -10.203931 -1.200903
v 1.569054 -10.203931 -0.649924
v 1.698332 -10.203931 -0.000000
v 1.569054 -10.203931 0.649924
v 1.200902 -10.203931 1.200903
v 0.649923 -10.203931 1.569055
v -0.000001 -10.203931 1.698333
v -0.649925 -10.203931 1.569055
v -1.200903 -10.203931 1.200903
v -1.569056 -10.203931 0.649924
v -1.698334 -10.203931 -0.000000
v -1.569056 -10.203931 -0.649924
v -1.200903 -10.203931 -1.200903
v -0.649925 -10.203931 -1.569055
v -0.000000 -9.069049 -0.997870
v 0.381868 -9.069049 -0.921911
v 0.705600 -9.069049 -0.705601
v 0.921911 -9.069049 -0.381868
v 0.997869 -9.069049 0.000000
v 0.921911 -9.069049 0.381868
v 0.705600 -9.069049 0.705601
v 0.381868 -9.069049 0.921911
v -0.000000 -9.069049 0.997870
v -0.381869 -9.069049 0.921911
v -0.705601 -9.069049 0.705601
v -0.921912 -9.069049 0.381868
v -0.997870 -9.069049 0.000000
v -0.921912 -9.069049 -0.381868
v -0.705601 -9.069049 -0.705601
v -0.381869 -9.069049 -0.921911
v 0.000000 -5.792457 -1.000000
v 0.382683 -5.792457 -0.923880
v -0.382683 -5.792457 -0.923880
v 0.707107 -5.792457 -0.707107
v 0.923880 -5.792457 -0.382683
v 1.000000 -5.792457 0.000000
v 0.923880 -5.792457 0.382683
v 0.707107 -5.792457 0.707107
v 0.382683 -5.792457 0.923880
v 0.000000 -5.792457 1.000000
v -0.382683 -5.792457 0.923880
v -0.707107 -5.792457 0.707107
v -0.923880 -5.792457 0.382683
v -1.000000 -5.792457 0.000000
v -0.923880 -5.792457 -0.382683
v -0.707107 -5.792457 -0.707107
v 0.000000 -8.362617 -2.640763
v 0.351390 -8.362617 -2.533116
v 2.533116 -8.362617 -0.421668
v 2.640763 -8.362617 0.000000
v 2.533116 -8.362617 0.421668
v 0.351390 -8.362617 2.533116
v 0.000000 -8.362617 2.640763
v -0.351390 -8.362617 2.533116
v -2.533116 -8.362617 0.351390
v -2.640763 -8.362617 0.000000
v -2.533116 -8.362617 -0.351390
v -0.351390 -8.362617 -2.533116
v 0.351390 -8.362617 -2.533116
v 2.533116 -8.362617 -0.421668
v 2.640763 -8.362617 0.000000
v 2.533116 -8.362617 0.421668
v 0.351390 -8.362617 2.533116
v 0.000000 -8.362617 2.640763
v -0.351390 -8.362617 2.533116
v -2.533116 -8.362617 0.351390
v -2.640763 -8.362617 0.000000
v -2.533116 -8.362617 -0.351390
v 0.000000 -8.362617 -2.640763
v -0.351390 -8.362617 -2.533116
vn -0.1951 -0.0000 -0.9808
vn 0.8315 -0.0000 -0.5556
vn 0.9808 -0.0000 -0.1951
vn 0.9808 -0.0000 0.1951
vn 0.8315 -0.0000 0.5556
vn 0.5556 -0.0000 0.8315
vn 0.1951 -0.0000 0.9808
vn -0.1951 -0.0000 0.9808
vn -0.5556 -0.0000 0.8315
vn -0.8315 -0.0000 0.5556
vn -0.9808 -0.0000 0.1951
vn -0.9808 -0.0000 -0.1951
vn -0.8315 -0.0000 -0.5556
vn -0.5556 -0.0000 -0.8315
vn 0.1951 -0.0000 -0.9808
vn 0.5556 -0.0000 -0.8315
vn 0.5207 0.3486 0.7793
vn 0.1948 0.0587 -0.9791
vn 0.1917 0.1859 -0.9637
vn 0.1829 0.3481 -0.9194
vn 0.1577 0.5890 -0.7926
vn 0.0506 0.9658 -0.2544
vn 0.5546 0.0587 -0.8300
vn 0.5459 0.1859 -0.8170
vn 0.5208 0.3481 -0.7795
vn 0.4490 0.5890 -0.6719
vn 0.1441 0.9658 -0.2156
vn 0.8300 0.0587 -0.5546
vn 0.8170 0.1859 -0.5459
vn 0.7795 0.3481 -0.5208
vn 0.6719 0.5890 -0.4490
vn 0.2156 0.9658 -0.1441
vn 0.9791 0.0587 -0.1948
vn 0.9637 0.1859 -0.1917
vn 0.9194 0.3481 -0.1829
vn 0.7926 0.5890 -0.1577
vn 0.2544 0.9658 -0.0506
vn 0.9791 0.0587 0.1948
vn 0.9637 0.1859 0.1917
vn 0.9194 0.3481 0.1829
vn 0.7926 0.5890 0.1577
vn 0.2544 0.9658 0.0506
vn 0.8300 0.0587 0.5546
vn 0.8170 0.1859 0.5459
vn 0.7795 0.3481 0.5208
vn 0.6719 0.5890 0.4490
vn 0.2156 0.9658 0.1441
vn 0.5546 0.0587 0.8300
vn 0.5459 0.1859 0.8170
vn 0.5208 0.3481 0.7795
vn 0.4490 0.5890 0.6719
vn 0.1441 0.9658 0.2156
vn 0.1948 0.0587 0.9791
vn 0.1917 0.1859 0.9637
vn 0.1829 0.3481 0.9194
vn 0.1577 0.5890 0.7926
vn 0.0506 0.9658 0.2544
vn -0.1948 0.0587 0.9791
vn -0.1917 0.1859 0.9637
vn -0.1829 0.3481 0.9194
vn -0.1577 0.5890 0.7926
vn -0.0506 0.9658 0.2544
vn -0.5546 0.0587 0.8300
vn -0.5459 0.1859 0.8170
vn -0.5208 0.3481 0.7795
vn -0.4490 0.5890 0.6719
vn -0.1441 0.9658 0.2156
vn -0.8300 0.0587 0.5546
vn -0.8170 0.1859 0.5459
vn -0.7795 0.3481 0.5208
vn -0.6719 0.5890 0.4490
vn -0.2156 0.9658 0.1441
vn -0.9791 0.0587 0.1948
vn -0.9637 0.1859 0.1917
vn -0.9194 0.3481 0.1829
vn -0.7926 0.5890 0.1577
vn -0.2544 0.9658 0.0506
vn -0.9791 0.0587 -0.1948
vn -0.9637 0.1859 -0.1917
vn -0.9194 0.3481 -0.1829
vn -0.7926 0.5890 -0.1577
vn -0.2544 0.9658 -0.0506
vn -0.8300 0.0587 -0.5546
vn -0.8170 0.1859 -0.5459
vn -0.7795 0.3481 -0.5208
vn -0.6719 0.5890 -0.4490
vn -0.2156 0.9658 -0.1441
vn -0.5546 0.0587 -0.8300
vn -0.5459 0.1859 -0.8170
vn -0.5208 0.3481 -0.7795
vn -0.4490 0.5890 -0.6719
vn -0.1441 0.9658 -0.2156
vn -0.1948 0.0587 -0.9791
vn -0.1917 0.1859 -0.9637
vn -0.1829 0.3481 -0.9194
vn -0.1577 0.5890 -0.7926
vn -0.0506 0.9658 -0.2544
vn -0.0000 1.0000 -0.0000
vn 0.9382 -0.2914 -0.1866
vn -0.5207 0.3486 -0.7793
vn 0.1829 0.3486 0.9193
vn 0.1829 0.3486 -0.9193
vn -0.1829 0.3486 -0.9193
vn -0.1829 0.3486 0.9193
vn 0.5207 0.3486 -0.7793
vn -0.5207 0.3486 0.7793
vn 0.7793 0.3486 -0.5207
vn -0.7793 0.3486 0.5207
vn 0.9193 0.3486 -0.1829
vn -0.9193 0.3486 0.1829
vn 0.9193 0.3486 0.1828
vn -0.9193 0.3486 -0.1829
vn 0.7793 0.3486 0.5207
vn -0.7793 0.3486 -0.5207
vn -0.0000 -1.0000 -0.0000
vn -0.9382 -0.2914 -0.1866
vn 0.9382 -0.2914 0.1866
vn -0.7954 -0.2914 -0.5315
vn 0.7954 -0.2914 0.5315
vn -0.5315 -0.2914 -0.7954
vn 0.5315 -0.2914 0.7954
vn -0.1866 -0.2914 -0.9382
vn -0.1866 -0.2914 0.9382
vn 0.1866 -0.2914 0.9382
vn 0.1866 -0.2914 -0.9382
vn -0.5315 -0.2914 0.7954
vn 0.5315 -0.2914 -0.7954
vn -0.7954 -0.2914 0.5315
vn 0.7954 -0.2914 -0.5315
vn -0.9382 -0.2914 0.1866
vn 0.9998 -0.0000 -0.0194
vn 0.9998 -0.0000 0.0194
vn 0.8293 0.5257 -0.1895
vn -0.8275 0.5219 0.2071
vn -0.2071 0.5219 -0.8275
vn -0.9998 -0.0000 0.0194
vn -0.2071 0.5219 0.8275
vn -0.9998 -0.0000 -0.0194
vn 0.2071 0.5219 -0.8275
vn 0.2071 0.5219 0.8275
vn -0.0242 -0.0000 -0.9997
vn -0.0194 -0.0000 0.9998
vn -0.0242 -0.0000 0.9997
vn -0.8275 0.5219 -0.2071
vn -0.0194 -0.0000 -0.9998
vn 0.8293 0.5257 0.1895
vt 0.062500 0.597936
vt 0.062500 0.792512
vt 0.000000 0.792512
vt 0.000000 0.597936
vt 0.875000 0.597936
vt 0.875000 0.792512
vt 0.812500 0.792512
vt 0.812500 0.597936
vt 0.750000 0.792512
vt 0.750000 0.597936
vt 0.687500 0.792512
vt 0.687500 0.597936
vt 0.625000 0.792512
vt 0.625000 0.597936
vt 0.562500 0.792512
vt 0.562500 0.597936
vt 0.500000 0.792512
vt 0.500000 0.597936
vt 0.437500 0.792512
vt 0.437500 0.597936
vt 0.437500 0.792512
vt 0.375000 0.792512
vt 0.375000 0.597936
vt 0.312500 0.792512
vt 0.312500 0.597936
vt 0.250000 0.792512
vt 0.250000 0.597936
vt 0.187500 0.792512
vt 0.187500 0.597936
vt 0.125000 0.792512
vt 0.125000 0.597936
vt 1.000000 0.597936
vt 1.000000 0.792512
vt 0.937500 0.792512
vt 0.937500 0.597936
vt 0.625000 0.500000
vt 0.562500 0.500000
vt 0.998706 0.856629
vt 0.938794 0.856629
vt 0.994950 1.000000
vt 0.942550 1.000000
vt 0.334422 0.473207
vt 0.257422 0.488524
vt 0.250000 0.406283
vt 0.309807 0.394386
vt 0.250000 0.349667
vt 0.288141 0.342081
vt 0.250000 0.286909
vt 0.264124 0.284099
vt 0.936206 0.856629
vt 0.876294 0.856629
vt 0.932450 1.000000
vt 0.880050 1.000000
vt 0.413414 0.423910
vt 0.348136 0.467527
vt 0.360509 0.360509
vt 0.320475 0.320475
vt 0.276098 0.276098
vt 0.873706 0.856629
vt 0.813794 0.856629
vt 0.869950 1.000000
vt 0.817550 1.000000
vt 0.467527 0.348136
vt 0.423910 0.413414
vt 0.394386 0.309807
vt 0.342081 0.288141
vt 0.284099 0.264124
vt 0.811206 0.856629
vt 0.751294 0.856629
vt 0.807450 1.000000
vt 0.755050 1.000000
vt 0.488524 0.257422
vt 0.473207 0.334422
vt 0.406283 0.250000
vt 0.349667 0.250000
vt 0.286909 0.250000
vt 0.748706 0.856629
vt 0.688794 0.856629
vt 0.744950 1.000000
vt 0.692550 1.000000
vt 0.473207 0.165578
vt 0.488524 0.242578
vt 0.394386 0.190193
vt 0.342081 0.211859
vt 0.284099 0.235876
vt 0.686206 0.856629
vt 0.626294 0.856629
vt 0.682450 1.000000
vt 0.630050 1.000000
vt 0.423910 0.086586
vt 0.467527 0.151864
vt 0.360509 0.139491
vt 0.320476 0.179524
vt 0.276098 0.223902
vt 0.623706 0.856629
vt 0.563794 0.856629
vt 0.619950 1.000000
vt 0.567550 1.000000
vt 0.348136 0.032473
vt 0.413414 0.076090
vt 0.309807 0.105614
vt 0.288141 0.157919
vt 0.264124 0.215901
vt 0.561206 0.856629
vt 0.501294 0.856629
vt 0.557450 1.000000
vt 0.505050 1.000000
vt 0.257422 0.011476
vt 0.334422 0.026793
vt 0.250000 0.093717
vt 0.250000 0.150333
vt 0.250000 0.213091
vt 0.498706 0.856629
vt 0.438794 0.856629
vt 0.494950 1.000000
vt 0.442550 1.000000
vt 0.165578 0.026793
vt 0.242578 0.011476
vt 0.190193 0.105614
vt 0.211859 0.157919
vt 0.235876 0.215901
vt 0.436206 0.856629
vt 0.376294 0.856629
vt 0.432450 1.000000
vt 0.380050 1.000000
vt 0.086586 0.076090
vt 0.151864 0.032473
vt 0.139491 0.139491
vt 0.179525 0.179525
vt 0.223902 0.223902
vt 0.373706 0.856629
vt 0.313794 0.856629
vt 0.369950 1.000000
vt 0.317550 1.000000
vt 0.032473 0.151864
vt 0.076090 0.086586
vt 0.105614 0.190193
vt 0.157919 0.211859
vt 0.215901 0.235876
vt 0.311206 0.856629
vt 0.251294 0.856629
vt 0.307450 1.000000
vt 0.255050 1.000000
vt 0.011476 0.242578
vt 0.026793 0.165578
vt 0.093717 0.250000
vt 0.150333 0.250000
vt 0.213091 0.250000
vt 0.248706 0.856629
vt 0.188794 0.856629
vt 0.244950 1.000000
vt 0.192550 1.000000
vt 0.026793 0.334422
vt 0.011476 0.257422
vt 0.105614 0.309807
vt 0.157919 0.288141
vt 0.215901 0.264124
vt 0.186206 0.856629
vt 0.126294 0.856629
vt 0.182450 1.000000
vt 0.130050 1.000000
vt 0.076090 0.413414
vt 0.032473 0.348136
vt 0.139491 0.360509
vt 0.179525 0.320475
vt 0.223902 0.276098
vt 0.123706 0.856629
vt 0.063794 0.856629
vt 0.119950 1.000000
vt 0.067550 1.000000
vt 0.151864 0.467527
vt 0.086586 0.423910
vt 0.190193 0.394386
vt 0.211859 0.342081
vt 0.235876 0.284099
vt 0.061206 0.856629
vt 0.001294 0.856629
vt 0.057450 1.000000
vt 0.005050 1.000000
vt 0.242578 0.488524
vt 0.165578 0.473207
vt 0.573694 0.176972
vt 0.559168 0.250000
vt 0.125000 0.500000
vt 0.062500 0.500000
vt 0.500000 0.500000
vt 1.000000 0.500000
vt 0.937500 0.500000
vt 0.000000 0.500000
vt 0.437500 0.500000
vt 0.875000 0.500000
vt 0.375000 0.500000
vt 0.812500 0.500000
vt 0.312500 0.500000
vt 0.750000 0.500000
vt 0.250000 0.500000
vt 0.687500 0.500000
vt 0.187500 0.500000
vt 0.823029 0.426306
vt 0.750000 0.440833
vt 0.750000 0.490000
vt 0.841844 0.471731
vt 0.884939 0.384939
vt 0.919706 0.419706
vt 0.926306 0.323028
vt 0.971731 0.341844
vt 0.940832 0.250000
vt 0.990000 0.250000
vt 0.926306 0.176972
vt 0.971731 0.158156
vt 0.884939 0.115061
vt 0.919706 0.080294
vt 0.823028 0.073694
vt 0.841844 0.028269
vt 0.750000 0.059168
vt 0.750000 0.010000
vt 0.676972 0.073694
vt 0.658156 0.028269
vt 0.615061 0.115061
vt 0.580294 0.080294
vt 0.528269 0.158156
vt 0.510000 0.250000
vt 0.573694 0.323028
vt 0.528269 0.341844
vt 0.615061 0.384939
vt 0.580294 0.419706
vt 0.676972 0.426306
vt 0.658156 0.471731
s 0
f 163/1/1 108/2/1 18/3/1 161/4/1
f 164/5/2 30/6/2 36/7/2 165/8/2
f 165/8/3 36/7/3 42/9/3 166/10/3
f 166/10/4 42/9/4 48/11/4 167/12/4
f 167/12/5 48/11/5 54/13/5 168/14/5
f 168/14/6 54/13/6 60/15/6 169/16/6
f 169/16/7 60/15/7 66/17/7 170/18/7
f 170/18/8 66/17/8 72/19/8 171/20/8
f 171/20/9 72/21/9 78/22/9 172/23/9
f 172/23/10 78/22/10 84/24/10 173/25/10
f 173/25/11 84/24/11 90/26/11 174/27/11
f 174/27/12 90/26/12 96/28/12 175/29/12
f 175/29/13 96/28/13 102/30/13 176/31/13
f 176/31/14 102/30/14 108/2/14 163/1/14
f 161/32/15 18/33/15 24/34/15 162/35/15
f 162/35/16 24/34/16 30/6/16 164/5/16
f 7/36/17 8/37/17 136/37/17 135/36/17
f 24/34/18 18/33/18 22/38/18 28/39/18
f 28/39/19 22/38/19 21/40/19 27/41/19
f 27/42/20 21/43/20 20/44/20 26/45/20
f 26/45/21 20/44/21 19/46/21 25/47/21
f 25/47/22 19/46/22 17/48/22 23/49/22
f 30/6/23 24/34/23 28/50/23 34/51/23
f 34/51/24 28/50/24 27/52/24 33/53/24
f 33/54/25 27/55/25 26/45/25 32/56/25
f 32/56/26 26/45/26 25/47/26 31/57/26
f 31/57/27 25/47/27 23/49/27 29/58/27
f 36/7/28 30/6/28 34/59/28 40/60/28
f 40/60/29 34/59/29 33/61/29 39/62/29
f 39/63/30 33/64/30 32/56/30 38/65/30
f 38/65/31 32/56/31 31/57/31 37/66/31
f 37/66/32 31/57/32 29/58/32 35/67/32
f 42/9/33 36/7/33 40/68/33 46/69/33
f 46/69/34 40/68/34 39/70/34 45/71/34
f 45/72/35 39/73/35 38/65/35 44/74/35
f 44/74/36 38/65/36 37/66/36 43/75/36
f 43/75/37 37/66/37 35/67/37 41/76/37
f 48/11/38 42/9/38 46/77/38 52/78/38
f 52/78/39 46/77/39 45/79/39 51/80/39
f 51/81/40 45/82/40 44/74/40 50/83/40
f 50/83/41 44/74/41 43/75/41 49/84/41
f 49/84/42 43/75/42 41/76/42 47/85/42
f 54/13/43 48/11/43 52/86/43 58/87/43
f 58/87/44 52/86/44 51/88/44 57/89/44
f 57/90/45 51/91/45 50/83/45 56/92/45
f 56/92/46 50/83/46 49/84/46 55/93/46
f 55/93/47 49/84/47 47/85/47 53/94/47
f 60/15/48 54/13/48 58/95/48 64/96/48
f 64/96/49 58/95/49 57/97/49 63/98/49
f 63/99/50 57/100/50 56/92/50 62/101/50
f 62/101/51 56/92/51 55/93/51 61/102/51
f 61/102/52 55/93/52 53/94/52 59/103/52
f 66/17/53 60/15/53 64/104/53 70/105/53
f 70/105/54 64/104/54 63/106/54 69/107/54
f 69/108/55 63/109/55 62/101/55 68/110/55
f 68/110/56 62/101/56 61/102/56 67/111/56
f 67/111/57 61/102/57 59/103/57 65/112/57
f 72/19/58 66/17/58 70/113/58 76/114/58
f 76/114/59 70/113/59 69/115/59 75/116/59
f 75/117/60 69/118/60 68/110/60 74/119/60
f 74/119/61 68/110/61 67/111/61 73/120/61
f 73/120/62 67/111/62 65/112/62 71/121/62
f 78/22/63 72/21/63 76/122/63 82/123/63
f 82/123/64 76/122/64 75/124/64 81/125/64
f 81/126/65 75/127/65 74/119/65 80/128/65
f 80/128/66 74/119/66 73/120/66 79/129/66
f 79/129/67 73/120/67 71/121/67 77/130/67
f 84/24/68 78/22/68 82/131/68 88/132/68
f 88/132/69 82/131/69 81/133/69 87/134/69
f 87/135/70 81/136/70 80/128/70 86/137/70
f 86/137/71 80/128/71 79/129/71 85/138/71
f 85/138/72 79/129/72 77/130/72 83/139/72
f 90/26/73 84/24/73 88/140/73 94/141/73
f 94/141/74 88/140/74 87/142/74 93/143/74
f 93/144/75 87/145/75 86/137/75 92/146/75
f 92/146/76 86/137/76 85/138/76 91/147/76
f 91/147/77 85/138/77 83/139/77 89/148/77
f 96/28/78 90/26/78 94/149/78 100/150/78
f 100/150/79 94/149/79 93/151/79 99/152/79
f 99/153/80 93/154/80 92/146/80 98/155/80
f 98/155/81 92/146/81 91/147/81 97/156/81
f 97/156/82 91/147/82 89/148/82 95/157/82
f 102/30/83 96/28/83 100/158/83 106/159/83
f 106/159/84 100/158/84 99/160/84 105/161/84
f 105/162/85 99/163/85 98/155/85 104/164/85
f 104/164/86 98/155/86 97/156/86 103/165/86
f 103/165/87 97/156/87 95/157/87 101/166/87
f 108/2/88 102/30/88 106/167/88 112/168/88
f 112/168/89 106/167/89 105/169/89 111/170/89
f 111/171/90 105/172/90 104/164/90 110/173/90
f 110/173/91 104/164/91 103/165/91 109/174/91
f 109/174/92 103/165/92 101/166/92 107/175/92
f 18/3/93 108/2/93 112/176/93 22/177/93
f 22/177/94 112/176/94 111/178/94 21/179/94
f 21/180/95 111/181/95 110/173/95 20/44/95
f 20/44/96 110/173/96 109/174/96 19/46/96
f 19/46/97 109/174/97 107/175/97 17/48/97
f 23/49/98 17/48/98 107/175/98 101/166/98 95/157/98 89/148/98 83/139/98 77/130/98 71/121/98 65/112/98 59/103/98 53/94/98 47/85/98 41/76/98 35/67/98 29/58/98
f 124/182/99 125/183/99 157/183/99 156/182/99
f 15/184/100 16/185/100 144/185/100 143/184/100
f 8/37/101 9/186/101 137/186/101 136/37/101
f 1/187/102 2/188/102 130/188/102 129/187/102
f 16/185/103 1/189/103 129/189/103 144/185/103
f 9/186/104 10/190/104 138/190/104 137/186/104
f 2/188/105 3/191/105 131/191/105 130/188/105
f 10/190/106 11/192/106 139/192/106 138/190/106
f 3/191/107 4/193/107 132/193/107 131/191/107
f 11/192/108 12/194/108 140/194/108 139/192/108
f 4/193/109 5/195/109 133/195/109 132/193/109
f 12/194/110 13/196/110 141/196/110 140/194/110
f 5/195/111 6/197/111 134/197/111 133/195/111
f 13/196/112 14/198/112 142/198/112 141/196/112
f 6/197/113 7/36/113 135/36/113 134/197/113
f 14/198/114 15/184/114 143/184/114 142/198/114
f 114/199/115 113/200/115 129/201/115 130/202/115
f 115/203/115 114/199/115 130/202/115 131/204/115
f 116/205/115 115/203/115 131/204/115 132/206/115
f 117/207/115 116/205/115 132/206/115 133/208/115
f 118/209/115 117/207/115 133/208/115 134/210/115
f 119/211/115 118/209/115 134/210/115 135/212/115
f 120/213/115 119/211/115 135/212/115 136/214/115
f 121/215/115 120/213/115 136/214/115 137/216/115
f 122/217/115 121/215/115 137/216/115 138/218/115
f 123/219/115 122/217/115 138/218/115 139/220/115
f 124/182/115 123/219/115 139/220/115 140/221/115
f 125/183/115 124/182/115 140/221/115 141/222/115
f 126/223/115 125/183/115 141/222/115 142/224/115
f 127/225/115 126/223/115 142/224/115 143/226/115
f 128/227/115 127/225/115 143/226/115 144/228/115
f 113/200/115 128/227/115 144/228/115 129/201/115
f 145/200/115 146/199/115 147/203/115 148/205/115 149/207/115 150/209/115 151/211/115 152/213/115 153/215/115 154/217/115 155/219/115 156/182/115 157/183/115 158/223/115 159/225/115 160/227/115
f 117/207/116 118/209/116 150/209/116 149/207/116
f 125/183/117 126/223/117 158/223/117 157/183/117
f 118/209/118 119/211/118 151/211/118 150/209/118
f 126/223/119 127/225/119 159/225/119 158/223/119
f 119/211/120 120/213/120 152/213/120 151/211/120
f 127/225/121 128/227/121 160/227/121 159/225/121
f 120/213/122 121/215/122 153/215/122 152/213/122
f 113/200/123 114/199/123 146/199/123 145/200/123
f 128/227/124 113/200/124 145/200/124 160/227/124
f 121/215/125 122/217/125 154/217/125 153/215/125
f 114/199/126 115/203/126 147/203/126 146/199/126
f 122/217/127 123/219/127 155/219/127 154/217/127
f 115/203/128 116/205/128 148/205/128 147/203/128
f 123/219/129 124/182/129 156/182/129 155/219/129
f 116/205/130 117/207/130 149/207/130 148/205/130
f 2/188/16 162/35/16 164/5/16 3/191/16
f 10/190/115 9/186/115 183/186/115 184/190/115
f 15/184/14 176/31/14 163/1/14 16/185/14
f 14/198/13 175/29/13 176/31/13 15/184/13
f 162/35/131 2/188/131 178/188/131 189/35/131
f 1/189/115 16/185/115 188/185/115 177/189/115
f 11/192/10 172/23/10 173/25/10 12/194/10
f 10/190/9 171/20/9 172/23/9 11/192/9
f 8/37/132 169/16/132 193/16/132 182/37/132
f 2/188/115 1/187/115 177/187/115 178/188/115
f 7/36/6 168/14/6 169/16/6 8/37/6
f 6/197/5 167/12/5 168/14/5 7/36/5
f 165/8/133 166/10/133 191/10/133 190/8/133
f 9/186/115 8/37/115 182/37/115 183/186/115
f 3/191/2 164/5/2 165/8/2 4/193/2
f 173/25/134 174/27/134 197/27/134 196/25/134
f 177/187/98 199/32/98 189/35/98 178/188/98
f 186/196/98 197/27/98 198/29/98 187/198/98
f 185/194/98 196/25/98 197/27/98 186/196/98
f 183/186/98 194/18/98 195/20/98 184/190/98
f 182/37/98 193/16/98 194/18/98 183/186/98
f 180/195/98 191/10/98 192/12/98 181/197/98
f 179/193/98 190/8/98 191/10/98 180/195/98
f 188/185/98 200/1/98 199/4/98 177/189/98
f 163/1/135 161/4/135 199/4/135 200/1/135
f 171/20/136 10/190/136 184/190/136 195/20/136
f 170/18/137 171/20/137 195/20/137 194/18/137
f 16/185/138 163/1/138 200/1/138 188/185/138
f 161/32/139 162/35/139 189/35/139 199/32/139
f 5/195/115 4/193/115 179/193/115 180/195/115
f 169/16/140 170/18/140 194/18/140 193/16/140
f 4/193/141 165/8/141 190/8/141 179/193/141
f 13/196/115 12/194/115 185/194/115 186/196/115
f 6/197/115 5/195/115 180/195/115 181/197/115
f 12/194/142 173/25/142 196/25/142 185/194/142
f 14/198/115 13/196/115 186/196/115 187/198/115
f 167/12/143 6/197/143 181/197/143 192/12/143
f 174/27/144 175/29/144 198/29/144 197/27/144
f 175/29/145 14/198/145 187/198/145 198/29/145
f 166/10/146 167/12/146 192/12/146 191/10/146
